<?xml version="1.0" standalone="no"?>
<!DOCTYPE svg PUBLIC "-//W3C//DTD SVG 20010904//EN"
 "http://www.w3.org/TR/2001/REC-SVG-20010904/DTD/svg10.dtd">
<svg version="1.0" xmlns="http://www.w3.org/2000/svg"
 width="554.000000pt" height="554.000000pt" viewBox="0 0 554.000000 554.000000"
 preserveAspectRatio="xMidYMid meet">
<metadata>
Created by potrace 1.15, written by Peter Selinger 2001-2017
</metadata>
<g transform="translate(0.000000,554.000000) scale(0.100000,-0.100000)"
fill="#000000" stroke="none">
<path d="M880 5080 c-22 -7 -21 -8 12 -9 47 -1 94 -43 133 -116 41 -78 59
-108 73 -123 6 -7 12 -17 12 -22 0 -5 6 -15 13 -22 7 -7 18 -24 25 -38 44 -87
57 -100 90 -91 15 4 39 4 55 0 15 -4 27 -3 27 2 0 5 -4 9 -8 9 -10 0 -152 139
-152 149 0 5 -9 19 -20 32 -25 28 -24 87 2 102 39 25 322 -31 455 -89 17 -8
34 -14 38 -14 3 0 44 -18 90 -40 46 -22 88 -40 94 -40 5 0 11 -3 13 -7 2 -5
30 -21 63 -37 33 -17 66 -36 73 -43 7 -7 18 -13 24 -13 5 0 21 -9 35 -20 14
-11 33 -20 41 -20 9 0 -7 15 -34 32 -27 18 -50 36 -52 40 -2 5 -8 8 -13 8 -5
0 -34 16 -65 36 -30 19 -69 40 -85 46 -16 5 -29 14 -29 19 0 5 -6 9 -12 9 -7
0 -35 12 -63 25 -27 14 -56 25 -62 25 -7 0 -13 4 -13 9 0 5 -21 14 -47 21 -26
6 -52 15 -58 20 -5 4 -26 11 -45 15 -19 4 -39 11 -45 15 -5 4 -44 13 -85 20
-41 7 -79 16 -85 20 -5 4 -43 11 -84 15 -57 6 -83 14 -117 37 -68 45 -131 58
-194 38z"/>
<path d="M2243 4490 c-42 -17 -19 -54 46 -75 25 -8 61 -35 61 -46 0 -15 -73
-18 -200 -9 -74 6 -143 13 -154 16 -11 4 -16 2 -12 -4 3 -5 29 -16 57 -22 29
-7 64 -19 78 -26 14 -8 31 -14 38 -14 7 0 29 -9 50 -19 21 -10 62 -30 91 -42
28 -13 52 -27 52 -31 0 -5 6 -8 13 -8 17 0 157 -91 157 -102 0 -4 5 -8 11 -8
13 0 36 -20 118 -100 69 -69 129 -147 169 -223 l31 -57 7 45 c11 75 -11 184
-53 266 -21 40 -45 81 -53 89 -8 9 -22 27 -30 40 -20 31 -137 148 -179 180
-19 14 -39 30 -45 35 -6 6 -50 36 -98 68 -87 57 -112 64 -155 47z"/>
<path d="M545 4061 l-50 -6 63 -19 c34 -11 70 -28 79 -39 17 -18 16 -20 -7
-37 -14 -11 -50 -24 -80 -30 -30 -6 -62 -14 -70 -19 -8 -4 -39 -14 -67 -20
-29 -7 -53 -17 -53 -22 0 -5 -7 -9 -15 -9 -14 0 -65 -94 -65 -119 0 -5 -6 -16
-12 -23 -18 -19 -47 -76 -42 -81 2 -2 32 2 66 10 88 19 353 29 362 14 16 -25
-63 -92 -176 -151 -27 -14 -48 -28 -48 -32 0 -5 -6 -8 -13 -8 -17 0 -128 -74
-153 -101 -17 -19 -17 -19 22 -3 21 8 57 24 79 33 22 10 56 26 77 35 20 9 40
16 44 16 8 0 78 26 139 51 18 7 104 35 225 73 25 8 61 17 80 21 19 3 44 10 55
15 25 10 188 46 272 60 35 5 91 15 126 21 86 16 518 16 582 0 52 -13 124 -24
90 -14 -11 3 -29 12 -40 19 -11 8 -28 14 -38 14 -11 0 -33 6 -50 14 -60 27
-233 56 -397 68 -127 9 -221 9 -410 -1 -135 -7 -263 -16 -285 -21 -63 -13
-304 -32 -331 -26 -59 15 -47 87 18 101 18 4 38 11 43 16 6 4 53 15 105 24 52
9 122 21 155 27 78 14 530 13 615 0 130 -21 348 -76 365 -93 5 -5 15 -9 22 -9
18 0 84 -28 183 -78 71 -37 80 -40 57 -18 -15 14 -30 26 -32 26 -3 0 -26 15
-52 34 -65 45 -192 112 -231 121 -18 3 -32 10 -32 15 0 4 -17 12 -37 18 -52
15 -134 42 -158 53 -11 4 -49 13 -85 19 -36 6 -74 15 -85 20 -18 8 -59 14
-270 40 -77 10 -461 10 -540 1z"/>
<path d="M2380 4027 c14 -6 27 -14 30 -17 3 -3 25 -21 50 -38 56 -39 76 -72
85 -135 7 -47 22 -69 80 -115 8 -8 40 -16 70 -19 l54 -6 -9 31 c-11 41 -35 74
-45 64 -5 -4 -5 -1 -1 6 9 16 -81 105 -154 153 -56 37 -162 90 -177 88 -4 0 3
-6 17 -12z"/>
<path d="M2750 3579 c80 -39 147 -76 148 -80 2 -5 10 -9 17 -9 8 0 21 -7 29
-16 14 -13 16 -13 16 0 0 8 -6 21 -12 28 -7 7 -26 31 -43 53 -62 84 -65 86
-91 68 -25 -16 -23 -16 -189 24 -11 2 45 -28 125 -68z"/>
<path d="M1349 3596 c-2 -3 -27 -7 -54 -10 -157 -18 -241 -30 -250 -36 -5 -4
-30 -11 -55 -15 -49 -7 -156 -39 -207 -61 -17 -8 -35 -14 -40 -14 -5 0 -43
-18 -84 -40 -87 -48 -163 -109 -136 -110 9 0 17 4 17 9 0 4 22 4 50 -2 34 -6
51 -15 55 -28 9 -27 -9 -83 -44 -134 -39 -58 -39 -62 2 -22 52 50 95 85 182
149 44 33 91 68 105 79 13 10 30 19 37 19 7 0 13 4 13 8 0 8 137 79 235 122
28 12 59 26 70 31 19 8 43 15 165 44 l55 13 -56 1 c-31 1 -58 -1 -60 -3z"/>
<path d="M2045 3530 c-93 -20 -205 -91 -205 -130 0 -11 15 -24 43 -36 37 -16
74 -18 302 -18 257 -1 261 -1 310 -26 117 -59 144 -137 85 -245 -16 -30 -27
-55 -25 -55 3 0 23 11 45 25 47 30 88 72 101 104 8 21 14 23 47 17 20 -3 42
-12 48 -20 6 -9 29 -18 50 -22 36 -5 43 -3 75 28 18 19 43 40 54 46 17 9 10
11 -40 12 -84 0 -178 33 -360 126 -156 80 -188 98 -203 112 -7 6 -18 12 -24
12 -6 0 -33 13 -59 30 -27 16 -49 26 -49 22 0 -4 -4 -1 -9 7 -11 17 -128 24
-186 11z"/>
<path d="M1725 3160 c4 -13 14 -30 21 -37 7 -7 16 -22 19 -33 4 -11 11 -18 16
-15 5 4 9 0 9 -8 0 -8 10 -25 23 -39 12 -13 32 -35 42 -49 31 -38 105 -94 155
-116 143 -65 286 -72 305 -14 4 13 18 22 45 26 22 4 40 11 40 16 0 5 12 12 28
16 23 6 20 8 -27 14 -29 4 -58 13 -62 21 -7 10 -9 9 -9 -4 0 -12 -8 -18 -22
-18 -35 0 -68 11 -63 20 3 5 -8 11 -25 15 -16 4 -30 10 -30 15 0 5 -8 11 -19
15 -10 3 -29 15 -42 26 -18 15 -30 18 -53 12 -44 -11 -115 -5 -145 12 -14 7
-39 20 -56 28 -16 8 -43 26 -58 41 -15 14 -31 26 -34 26 -4 0 -20 12 -36 28
l-29 27 7 -25z"/>
<path d="M1073 2770 c-47 -19 -56 -79 -18 -114 94 -87 279 11 190 99 -21 22
-33 25 -87 24 -35 0 -73 -4 -85 -9z"/>
<path d="M20 2275 l0 -495 410 0 410 0 0 50 0 50 -315 0 -315 0 0 445 0 445
-95 0 -95 0 0 -495z"/>
<path d="M4190 2503 c-210 -18 -337 -77 -420 -197 -16 -24 -35 -73 -45 -118
-16 -72 -16 -79 1 -140 38 -137 137 -217 324 -263 101 -25 300 -25 430 0 52
10 98 22 101 27 4 6 2 26 -4 45 l-11 34 -50 -8 c-28 -4 -132 -8 -231 -8 -174
0 -182 1 -236 27 -66 31 -117 82 -135 135 -28 79 -59 73 362 73 l377 0 -5 78
c-10 162 -119 274 -295 301 -103 16 -121 18 -163 14z m144 -107 c36 -15 102
-69 115 -95 5 -9 12 -35 16 -58 l7 -43 -281 0 c-154 0 -282 3 -284 8 -8 14 30
87 64 122 32 33 68 55 114 71 38 13 214 10 249 -5z"/>
<path d="M1970 2489 c-70 -13 -151 -53 -198 -96 -7 -7 -17 -13 -21 -13 -9 0
-21 49 -21 86 0 23 -2 24 -80 24 l-81 0 3 -352 3 -353 93 -3 92 -3 0 214 c0
118 3 229 6 246 17 84 149 161 276 161 117 0 193 -41 227 -123 19 -45 21 -70
21 -273 l0 -224 95 0 95 0 0 236 c0 271 -7 306 -76 378 -48 51 -108 81 -188
95 -69 13 -181 13 -246 0z"/>
<path d="M3145 2490 c-123 -17 -234 -64 -312 -135 -72 -64 -103 -134 -103
-232 0 -98 29 -162 101 -227 61 -55 121 -84 229 -112 100 -25 302 -26 415 -1
44 10 81 20 83 21 1 2 -5 22 -14 45 l-17 42 -41 -8 c-22 -4 -111 -8 -196 -8
-127 1 -160 4 -185 18 -16 9 -35 17 -40 17 -16 0 -115 90 -115 105 0 7 -6 15
-12 18 -9 2 -13 30 -13 93 0 84 2 91 33 136 35 51 95 91 177 120 67 24 270 26
334 3 24 -8 45 -15 46 -15 2 0 13 18 24 41 16 30 19 45 11 54 -23 28 -267 43
-405 25z"/>
<path d="M5074 2487 c-173 -36 -265 -171 -184 -269 32 -38 111 -81 193 -105
26 -7 70 -19 98 -27 110 -31 153 -65 153 -121 0 -68 -67 -104 -196 -106 -68
-1 -181 15 -223 31 -40 15 -45 13 -61 -25 -23 -56 -20 -60 69 -81 112 -26 307
-26 392 0 152 47 215 114 200 216 -12 79 -80 130 -239 179 -38 11 -76 21 -83
21 -24 0 -117 46 -136 68 -28 31 -18 70 26 106 39 31 40 31 156 31 72 0 123
-4 132 -11 8 -6 25 -14 39 -17 21 -5 28 -1 43 24 29 52 23 66 -35 79 -79 18
-273 21 -344 7z"/>
<path d="M1059 2481 c0 -3 -1 -161 -1 -351 l-1 -345 94 0 94 0 2 339 c2 238
-1 344 -9 353 -8 10 -35 13 -94 12 -46 -1 -84 -4 -85 -8z"/>
<path d="M2082 1291 c2 -205 7 -314 14 -319 5 -4 16 -22 23 -40 20 -47 85 -96
166 -122 63 -21 89 -23 252 -23 108 0 188 5 195 11 7 5 29 13 48 17 49 10 116
52 145 89 39 51 44 104 45 409 l0 287 -27 0 c-48 -1 -113 -20 -144 -42 l-29
-22 0 -258 0 -259 -34 -35 c-29 -30 -44 -37 -103 -46 -99 -15 -245 -5 -286 21
-59 36 -62 50 -67 335 l-5 259 -36 18 c-19 11 -63 22 -97 25 l-62 7 2 -312z"/>
<path d="M3046 1574 c10 -16 21 -31 24 -34 3 -3 19 -25 35 -50 17 -25 33 -49
38 -55 22 -29 57 -87 57 -95 0 -4 3 -10 8 -12 4 -1 39 -50 77 -108 38 -58 75
-111 82 -118 7 -7 13 -18 13 -23 0 -9 37 -67 51 -79 13 -12 129 -191 129 -199
0 -13 45 -21 108 -20 50 2 54 3 82 46 17 24 30 46 30 48 0 5 82 127 90 135 17
16 100 149 100 159 0 7 4 10 9 6 5 -3 13 5 17 17 4 13 10 25 14 28 3 3 38 52
75 110 38 58 72 107 75 110 8 7 74 110 89 138 12 22 11 22 -47 22 -88 0 -161
-17 -199 -46 -18 -14 -55 -59 -81 -101 -26 -41 -52 -80 -57 -87 -11 -12 -47
-65 -55 -81 -12 -24 -86 -130 -92 -133 -5 -2 -8 -9 -8 -16 0 -7 -8 -21 -18
-32 -10 -10 -21 -27 -25 -37 -4 -10 -13 -17 -19 -15 -11 4 -118 153 -118 165
0 3 -8 15 -17 28 -10 12 -23 31 -30 41 -7 11 -28 42 -48 69 -19 28 -40 61 -46
75 -5 13 -13 27 -17 30 -4 3 -20 23 -35 46 -41 60 -97 84 -213 91 l-96 6 18
-29z"/>
<path d="M4320 1195 l-1 -404 23 -6 c13 -3 59 -5 103 -3 l80 3 0 253 c0 138 2
252 6 252 3 0 26 -24 51 -52 87 -100 123 -141 153 -172 17 -17 45 -51 63 -76
17 -24 32 -40 32 -35 0 5 7 -1 16 -14 l17 -23 51 55 c28 31 62 69 75 84 13 15
48 55 77 88 29 33 70 79 91 103 21 23 41 42 45 42 5 0 8 -114 8 -254 l0 -254
95 -1 95 -2 0 411 0 410 -32 0 c-82 -1 -157 -34 -202 -89 -11 -14 -29 -34 -41
-47 -11 -12 -51 -57 -90 -100 -38 -43 -87 -95 -107 -117 -21 -21 -38 -43 -38
-48 0 -20 -43 -7 -64 18 -22 29 -167 192 -221 249 -16 17 -42 44 -57 60 -15
16 -33 34 -41 40 -17 14 -106 34 -152 34 l-34 0 -1 -405z"/>
</g>
</svg>
